<svg width="62" height="38" viewBox="0 0 62 38" fill="none" xmlns="http://www.w3.org/2000/svg">
<path d="M0 0H62V38H0V0Z" fill="#5C9E31"/>
<path d="M54.0226 19.0222L30.8656 33.6522L7.97656 19.2902L31.1336 4.66016L54.0226 19.0222V19.0222Z" fill="#FCEA2B"/>
<path d="M31 28C35.9706 28 40 23.9706 40 19C40 14.0294 35.9706 10 31 10C26.0294 10 22 14.0294 22 19C22 23.9706 26.0294 28 31 28Z" fill="#1E50A0"/>
<path d="M39.1584 22.7822C39.4883 22.0626 39.7223 21.3028 39.8544 20.5222C39.1108 18.9676 38.0265 17.6005 36.682 16.5224C35.3376 15.4443 33.7675 14.6829 32.0885 14.2948C30.4095 13.9066 28.6645 13.9017 26.9833 14.2804C25.3022 14.6591 23.7279 15.4117 22.3774 16.4822C22.1839 17.1377 22.0658 17.813 22.0254 18.4952C23.3525 17.4066 24.916 16.6437 26.5907 16.2676C28.2655 15.8915 30.0051 15.9126 31.6702 16.3292C33.3354 16.7459 34.8799 17.5465 36.1801 18.667C37.4804 19.7876 38.5004 21.1969 39.1584 22.7822V22.7822Z" fill="white"/>
</svg>
