<?xml version="1.0" encoding="UTF-8"?>
<svg xmlns="http://www.w3.org/2000/svg" xmlns:xlink="http://www.w3.org/1999/xlink" width="62px" height="38px" viewBox="0 0 62 38" version="1.1">
<g id="surface1">
<rect x="0" y="0" width="62" height="38" style="fill:rgb(93.333333%,10.980392%,14.509804%);fill-opacity:1;stroke:none;"/>
<path style=" stroke:none;fill-rule:nonzero;fill:rgb(100%,100%,0%);fill-opacity:1;" d="M 10.332031 3.800781 L 13.976562 14.113281 L 4.4375 7.738281 L 16.230469 7.738281 L 6.6875 14.113281 Z M 10.332031 3.800781 "/>
<path style=" stroke:none;fill-rule:nonzero;fill:rgb(100%,100%,0%);fill-opacity:1;" d="M 21.476562 2.050781 L 21.128906 5.652344 L 19.109375 2.550781 L 22.726562 3.964844 L 18.894531 4.777344 Z M 21.476562 2.050781 "/>
<path style=" stroke:none;fill-rule:nonzero;fill:rgb(100%,100%,0%);fill-opacity:1;" d="M 26.285156 6.277344 L 24.445312 9.472656 L 23.890625 5.894531 L 26.628906 8.488281 L 22.753906 7.867188 Z M 26.285156 6.277344 "/>
<path style=" stroke:none;fill-rule:nonzero;fill:rgb(100%,100%,0%);fill-opacity:1;" d="M 26.742188 12.648438 L 23.644531 14.875 L 24.726562 11.402344 L 26.074219 14.796875 L 22.8125 12.777344 Z M 26.742188 12.648438 "/>
<path style=" stroke:none;fill-rule:nonzero;fill:rgb(100%,100%,0%);fill-opacity:1;" d="M 21.394531 15.320312 L 21.214844 18.933594 L 19.054688 15.914062 L 22.730469 17.1875 L 18.941406 18.144531 Z M 21.394531 15.320312 "/>
</g>
</svg>
