<svg width="62" height="38" viewBox="0 0 62 38" fill="none" xmlns="http://www.w3.org/2000/svg">
<path d="M0 0H62V38H0V0Z" fill="white"/>
<path d="M0 0H62V5H0V0ZM0 9H62V13H0V9ZM0 17H62V21H0V17Z" fill="#D22F27"/>
<path d="M0 0H32V21H0V0Z" fill="#1E50A0"/>
<path d="M0 25H62V29H0V25Z" fill="#D22F27"/>
<path d="M4.5 6.75C5.4665 6.75 6.25 5.9665 6.25 5C6.25 4.0335 5.4665 3.25 4.5 3.25C3.5335 3.25 2.75 4.0335 2.75 5C2.75 5.9665 3.5335 6.75 4.5 6.75Z" fill="white"/>
<path d="M12.5 6.75C13.4665 6.75 14.25 5.9665 14.25 5C14.25 4.0335 13.4665 3.25 12.5 3.25C11.5335 3.25 10.75 4.0335 10.75 5C10.75 5.9665 11.5335 6.75 12.5 6.75Z" fill="white"/>
<path d="M20.5 6.75C21.4665 6.75 22.25 5.9665 22.25 5C22.25 4.0335 21.4665 3.25 20.5 3.25C19.5335 3.25 18.75 4.0335 18.75 5C18.75 5.9665 19.5335 6.75 20.5 6.75Z" fill="white"/>
<path d="M28.5 6.75C29.4665 6.75 30.25 5.9665 30.25 5C30.25 4.0335 29.4665 3.25 28.5 3.25C27.5335 3.25 26.75 4.0335 26.75 5C26.75 5.9665 27.5335 6.75 28.5 6.75Z" fill="white"/>
<path d="M24.5 10.75C25.4665 10.75 26.25 9.9665 26.25 9C26.25 8.0335 25.4665 7.25 24.5 7.25C23.5335 7.25 22.75 8.0335 22.75 9C22.75 9.9665 23.5335 10.75 24.5 10.75Z" fill="white"/>
<path d="M16.5 10.75C17.4665 10.75 18.25 9.9665 18.25 9C18.25 8.0335 17.4665 7.25 16.5 7.25C15.5335 7.25 14.75 8.0335 14.75 9C14.75 9.9665 15.5335 10.75 16.5 10.75Z" fill="white"/>
<path d="M8.5 10.75C9.4665 10.75 10.25 9.9665 10.25 9C10.25 8.0335 9.4665 7.25 8.5 7.25C7.5335 7.25 6.75 8.0335 6.75 9C6.75 9.9665 7.5335 10.75 8.5 10.75Z" fill="white"/>
<path d="M4.5 14.75C5.4665 14.75 6.25 13.9665 6.25 13C6.25 12.0335 5.4665 11.25 4.5 11.25C3.5335 11.25 2.75 12.0335 2.75 13C2.75 13.9665 3.5335 14.75 4.5 14.75Z" fill="white"/>
<path d="M12.5 14.75C13.4665 14.75 14.25 13.9665 14.25 13C14.25 12.0335 13.4665 11.25 12.5 11.25C11.5335 11.25 10.75 12.0335 10.75 13C10.75 13.9665 11.5335 14.75 12.5 14.75Z" fill="white"/>
<path d="M20.5 14.75C21.4665 14.75 22.25 13.9665 22.25 13C22.25 12.0335 21.4665 11.25 20.5 11.25C19.5335 11.25 18.75 12.0335 18.75 13C18.75 13.9665 19.5335 14.75 20.5 14.75Z" fill="white"/>
<path d="M28.5 14.75C29.4665 14.75 30.25 13.9665 30.25 13C30.25 12.0335 29.4665 11.25 28.5 11.25C27.5335 11.25 26.75 12.0335 26.75 13C26.75 13.9665 27.5335 14.75 28.5 14.75Z" fill="white"/>
<path d="M24.5 18.75C25.4665 18.75 26.25 17.9665 26.25 17C26.25 16.0335 25.4665 15.25 24.5 15.25C23.5335 15.25 22.75 16.0335 22.75 17C22.75 17.9665 23.5335 18.75 24.5 18.75Z" fill="white"/>
<path d="M16.5 18.75C17.4665 18.75 18.25 17.9665 18.25 17C18.25 16.0335 17.4665 15.25 16.5 15.25C15.5335 15.25 14.75 16.0335 14.75 17C14.75 17.9665 15.5335 18.75 16.5 18.75Z" fill="white"/>
<path d="M8.5 18.75C9.4665 18.75 10.25 17.9665 10.25 17C10.25 16.0335 9.4665 15.25 8.5 15.25C7.5335 15.25 6.75 16.0335 6.75 17C6.75 17.9665 7.5335 18.75 8.5 18.75Z" fill="white"/>
<path d="M0 33H62V38H0V33Z" fill="#D22F27"/>
</svg>
